<svg xmlns="http://www.w3.org/2000/svg" version="1.1" xmlns:xlink="http://www.w3.org/1999/xlink" xmlns:svgjs="http://svgjs.dev/svgjs" width="1000" height="1000" viewBox="0 0 1000 1000"><rect width="1000" height="1000" fill="#ffffff"></rect><g transform="matrix(0.7,0,0,0.7,149.57576651282068,449.56233123146325)"><svg viewBox="0 0 396 57" data-background-color="#ffffff" preserveAspectRatio="xMidYMid meet" height="143" width="1000" xmlns="http://www.w3.org/2000/svg" xmlns:xlink="http://www.w3.org/1999/xlink"><g id="tight-bounds" transform="matrix(1,0,0,1,0.23999592044447127,0.22075044761831464)"><svg viewBox="0 0 395.52 56.55849748220335" height="56.55849748220335" width="395.52"><g><svg viewBox="0 0 569.3079646660252 81.40979744680851" height="56.55849748220335" width="395.52"><g><rect width="5.312315158222979" height="70.68868085106382" x="154.56906532397247" y="5.360558297872345" fill="#ffa458" opacity="1" stroke-width="0" stroke="transparent" fill-opacity="1" class="rect-o-0" data-fill-palette-color="primary" rx="1%" id="o-0" data-palette-color="#ffa458"></rect></g><g transform="matrix(1,0,0,1,173.78796466602523,11.251281702127663)"><svg viewBox="0 0 395.52 58.907234042553185" height="58.907234042553185" width="395.52"><g id="textblocktransform"><svg viewBox="0 0 395.52 58.907234042553185" height="58.907234042553185" width="395.52" id="textblock"><g><svg viewBox="0 0 395.52 58.907234042553185" height="58.907234042553185" width="395.52"><g transform="matrix(1,0,0,1,0,0)"><svg width="395.52" viewBox="0 -50 293.739990234375 43.75" height="58.907234042553185" data-palette-color="#ffa458"><path d="M37.5-6.25L0-6.25 0-50 37.5-50 37.5-43.75 43.75-43.75 43.75-31.25 37.5-31.25 37.5-25 43.75-25 43.75-12.5 37.5-12.5 37.5-6.25ZM12.5-43.75L12.5-31.25 31.25-31.25 31.25-43.75 12.5-43.75ZM12.5-25L12.5-12.5 31.25-12.5 31.25-25 12.5-25ZM93.75-6.25L56.25-6.25 56.25-12.5 68.75-12.5 68.75-43.75 56.25-43.75 56.25-50 93.75-50 93.75-43.75 81.25-43.75 81.25-12.5 93.75-12.5 93.75-6.25ZM112.5-6.25L100-6.25 100-50 112.5-50 112.5-43.75 118.75-43.75 118.75-37.5 125-37.5 125-31.25 131.25-31.25 131.25-50 143.75-50 143.75-6.25 131.25-6.25 131.25-18.75 125-18.75 125-25 118.75-25 118.75-31.25 112.5-31.25 112.5-6.25ZM187.49-6.25L156.24-6.25 156.24-12.5 149.99-12.5 149.99-18.75 162.49-18.75 162.49-12.5 181.24-12.5 181.24-50 193.74-50 193.74-12.5 187.49-12.5 187.49-6.25ZM243.74-6.25L199.99-6.25 199.99-50 243.74-50 243.74-43.75 212.49-43.75 212.49-31.25 237.49-31.25 237.49-25 212.49-25 212.49-12.5 243.74-12.5 243.74-6.25ZM281.24-6.25L268.74-6.25 268.74-43.75 256.24-43.75 256.24-50 293.74-50 293.74-43.75 281.24-43.75 281.24-6.25Z" opacity="1" transform="matrix(1,0,0,1,0,0)" fill="#ffa458" class="wordmark-text-0" data-fill-palette-color="primary" id="text-0"></path></svg></g></svg></g></svg></g></svg></g><g><svg viewBox="0 0 140.6624811401427 81.40979744680851" height="81.40979744680851" width="140.6624811401427"><g><svg xmlns="http://www.w3.org/2000/svg" xmlns:xlink="http://www.w3.org/1999/xlink" version="1.1" x="0" y="0" viewBox="0.9010009765625 21.267333984375 97.75300598144531 56.57551574707031" enable-background="new 0 0 100 100" xml:space="preserve" height="81.40979744680851" width="140.6624811401427" class="icon-icon-0" data-fill-palette-color="accent" id="icon-0"><path fill-rule="evenodd" clip-rule="evenodd" d="M34.996 49.65c9.678 0.188 19.357 0.487 29.034 0.495 2.796 0.002 5.128 0.464 7.026 2.559 1.201 1.324 2.56 1.667 4.23 0.791 7.31-3.83 15.385-3.177 23.368-3.59-0.739 0.264-1.472 0.542-2.213 0.791-11.654 3.93-23.434 7.421-35.494 9.888-1.078 0.222-1.885 0.749-2.689 1.409-6.082 4.98-12.206 9.908-18.233 14.95-1.335 1.118-2.142 1.298-3.462-0.054-3.03-3.096-3.104-3.016-1.261-7.04 1.54-3.36 3.068-6.729 4.854-10.645-2.901 1.108-5.225 2.024-7.572 2.879-1.522 0.552-2.978 1.614-4.746 0.656-0.598-0.322-1.017 0.23-1.415 0.613-0.799 0.774-1.6 1.544-2.394 2.324-2.739 2.69-2.709 2.671-5.027-0.309-0.51-0.653-0.625-1.147-0.292-1.91 1.27-2.908 2.469-5.846 3.714-8.766 0.149-0.347 0.365-0.753 0.667-0.934 1.113-0.67 2.188-1.459 2.248-2.396 0.122-1.896-0.037-3.811-0.102-5.717-0.002-0.068-0.269-0.202-0.385-0.178-2.754 0.549-2.698-1.845-3.409-3.331-0.925-1.927-1.604-3.978-2.551-5.894-0.597-1.207-0.353-1.961 0.521-2.909 2.101-2.275 2.023-2.303 4.347-0.152 1.696 1.571 2.889 3.367 6.049 3.072 2.473-0.229 5.151 1.765 7.742 2.762 0.654 0.25 1.323 0.46 1.986 0.688 0.506-0.789-0.096-1.284-0.326-1.808-1.257-2.825-2.563-5.63-3.848-8.444-1.903-4.162-1.845-4.106 1.453-7.382 1.131-1.125 1.807-0.991 2.933-0.055 5.851 4.882 11.794 9.657 17.648 14.537 1.448 1.207 2.992 1.918 4.84 2.302 11.583 2.414 23.492 6.192 34.715 9.906 0.353 0.117 1.044 0.376 1.67 0.626-5.158-0.082-11.604-0.038-16.657-1.312-1.302-0.328-2.64-0.718-3.797-1.37-3.472-1.95-6.512-1.796-9.149 1.408-0.689 0.836-1.684 0.756-2.641 0.772-9.765 0.151-19.528 0.31-29.292 0.463-0.697 0.012-1.395 0.002-2.091 0.002C34.998 49.45 34.996 49.549 34.996 49.65z" fill="#ba3b0a" data-fill-palette-color="accent"></path><path fill-rule="evenodd" clip-rule="evenodd" d="M81.136 50.723c-2.348 0.582-4.686 1.196-7.042 1.732-1.627 0.37-2.02-1.098-3.199-2.206 3.659 0 6.896 0 10.135 0C81.063 50.409 81.101 50.565 81.136 50.723z" fill="#ba3b0a" data-fill-palette-color="accent"></path><path fill-rule="evenodd" clip-rule="evenodd" d="M81.136 48.587c-2.348-0.582-4.686-1.196-7.042-1.732-1.627-0.371-2.02 1.098-3.199 2.205 3.659 0 6.896 0 10.135 0C81.063 48.902 81.101 48.745 81.136 48.587z" fill="#ba3b0a" data-fill-palette-color="accent"></path><path fill-rule="evenodd" clip-rule="evenodd" d="M23.105 49.375c-6.808 0.841-13.553 0.229-20.307 0C9.567 49.375 16.336 49.375 23.105 49.375z" fill="#ba3b0a" data-fill-palette-color="accent"></path><path fill-rule="evenodd" clip-rule="evenodd" d="M22.862 52.027c-4.539 0-9.079 0-13.616 0 0-0.09 0-0.184 0-0.277 4.63 0 9.255 0 13.885 0C23.043 51.844 22.954 51.938 22.862 52.027z" fill="#ba3b0a" data-fill-palette-color="accent"></path><path fill-rule="evenodd" clip-rule="evenodd" d="M18.572 47.817c-5.892 0-11.783 0-17.671 0 0-0.091 0-0.185 0-0.277 6.008 0 12.011 0 18.02 0C18.805 47.633 18.689 47.727 18.572 47.817z" fill="#ba3b0a" data-fill-palette-color="accent"></path></svg></g></svg></g></svg></g><defs></defs></svg><rect width="395.52" height="56.55849748220335" fill="none" stroke="none" visibility="hidden"></rect></g></svg></g></svg>